# xmcd
#
# Track frame offsets:
# 150
# 12989
# 24509
# 36338
# 47737
# 63232
# 76831
# 89133
# 104825
# 119189
# 135518
# 151051
# 163847
# 178307
# 192334
# 208705
# 221645
# 236116
# 254632
# 269182
# 284347
# 298326
#
# Disc length: 4132 seconds
#
#
# Revision: 0
# Processed by: cddbd v1.5.2PL0 Copyright (c) Steve Scherf et al.
# Submitted via: FreeRIP 2.95 
#
DISCID=67102216
DTITLE=Barco A Vela - Vol 02 Agitando A Multidao
DYEAR=2007
DGENRE=Forro
TTITLE0=Galera Coracao
TTITLE1=Agitando A Multidao
TTITLE2=Barco A Vela
TTITLE3=Eu Ainda Te Amo
TTITLE4=Caixa Postal
TTITLE5=Vai E Volta
TTITLE6=Meu Mel Meu Fel
TTITLE7=Aguenta Coracao
TTITLE8=Sentimento
TTITLE9=E Amor Demais
TTITLE10=Uma Vez Mais
TTITLE11=Mulher Cerveja E Viola
TTITLE12=Quando Voce Quiser Voltar
TTITLE13=Nois Danca Conforme A Danca
TTITLE14=Nois Enrola Mais Nao Casa
TTITLE15=Abre A Janela
TTITLE16=Saldade Cigana
TTITLE17=Meu Anjo
TTITLE18=Quando A Noite Cai
TTITLE19=Perdidos
TTITLE20=Nao Tem Dia Nao Tem Hora
TTITLE21=Te Quero Pra Mim
EXTD=
EXTT0=
EXTT1=
EXTT2=
EXTT3=
EXTT4=
EXTT5=
EXTT6=
EXTT7=
EXTT8=
EXTT9=
EXTT10=
EXTT11=
EXTT12=
EXTT13=
EXTT14=
EXTT15=
EXTT16=
EXTT17=
EXTT18=
EXTT19=
EXTT20=
EXTT21=
PLAYORDER=
